# Blender v2.93.1 OBJ File: ''
# www.blender.org
mtllib Milk.mtl
o Cube.001
v 0.184368 0.284221 0.184368
v -0.184368 -0.384810 0.184368
v 0.184368 -0.384810 0.184368
v -0.184368 0.284221 -0.184368
v -0.091435 0.323711 0.118431
v -0.091435 0.323711 -0.118431
v -0.184368 0.284221 0.184368
v -0.184368 -0.384810 -0.184368
v 0.184368 -0.384810 -0.184368
v 0.184368 0.284221 -0.184368
v 0.184368 0.481180 0.006046
v -0.184368 0.522518 0.006046
v -0.184368 0.481180 0.006046
v 0.184368 0.481180 -0.006046
v -0.184368 0.522518 -0.006046
v 0.184368 0.522518 0.006046
v 0.184368 0.522518 -0.006046
v -0.184368 0.481180 -0.006046
v -0.091435 0.441690 -0.003884
v 0.091435 0.323711 -0.118431
v 0.091435 0.441690 0.003884
v 0.091435 0.323711 0.118431
v -0.091435 0.441690 0.003884
v 0.091435 0.441690 -0.003884
v 0.205573 0.493425 0.039513
v 0.205573 0.543676 -0.039513
v 0.205573 0.493425 -0.039513
v -0.205573 0.543676 -0.039513
v -0.205573 0.493425 -0.039513
v 0.205573 0.305359 0.205573
v 0.205573 0.305359 -0.205573
v -0.205573 0.493425 0.039513
v 0.205573 0.543676 0.039513
v 0.205573 -0.405017 0.205573
v 0.205573 -0.405017 -0.205573
v -0.205573 -0.405017 0.205573
v -0.205573 -0.405017 -0.205573
v -0.205573 0.543676 0.039513
v -0.205573 0.305359 -0.205573
v -0.205573 0.305359 0.205573
vt 0.538085 0.422199
vt 0.643007 0.612156
vt 0.538085 0.612156
vt 0.873816 0.294568
vt 0.900260 0.208595
vt 0.900260 0.275847
vt 0.699917 0.354540
vt 0.804839 0.544497
vt 0.699917 0.544497
vt 0.538085 0.668942
vt 0.643007 0.773637
vt 0.538085 0.773637
vt 0.816907 0.218350
vt 0.711984 0.028393
vt 0.816907 0.028393
vt 0.655075 0.218350
vt 0.550152 0.028393
vt 0.655075 0.028393
vt 0.538085 0.366277
vt 0.643007 0.354540
vt 0.643007 0.366277
vt 0.643007 0.422199
vt 0.550152 0.274272
vt 0.550152 0.218350
vt 0.971545 0.696692
vt 0.945102 0.651982
vt 0.971545 0.640770
vt 0.944586 0.459235
vt 0.941145 0.354540
vt 0.944586 0.354540
vt 0.655075 0.274272
vt 0.550152 0.286009
vt 0.957169 0.123302
vt 0.960610 0.111565
vt 0.960610 0.123302
vt 0.715425 0.275136
vt 0.711984 0.286873
vt 0.711984 0.275136
vt 0.062025 0.909420
vt 0.028455 0.874691
vt 0.062025 0.842168
vt 0.733487 0.915278
vt 0.699917 0.880549
vt 0.733487 0.848026
vt 0.971545 0.528062
vt 0.945102 0.572772
vt 0.945102 0.539274
vt 0.888192 0.851023
vt 0.861749 0.895733
vt 0.861749 0.862235
vt 0.793837 0.848026
vt 0.791012 0.874412
vt 0.790396 0.848026
vt 0.861749 0.794237
vt 0.888192 0.708264
vt 0.888192 0.775516
vt 0.971545 0.922108
vt 0.945102 0.877398
vt 0.971545 0.866186
vt 0.960610 0.028393
vt 0.957784 0.054779
vt 0.957169 0.028393
vt 0.249605 0.042661
vt 0.272092 0.028393
vt 0.272092 0.042661
vt 0.376253 0.042661
vt 0.493243 0.028393
vt 0.493243 0.042661
vt 0.202354 0.096058
vt 0.319344 0.096058
vt 0.028455 0.042661
vt 0.145445 0.028393
vt 0.145445 0.042661
vt 0.202354 0.297754
vt 0.319344 0.297754
vt 0.028455 0.297754
vt 0.145445 0.096058
vt 0.145445 0.297754
vt 0.364186 0.785678
vt 0.481176 0.668942
vt 0.481176 0.785678
vt 0.098193 0.609634
vt 0.075706 0.623901
vt 0.075706 0.609634
vt 0.376253 0.297754
vt 0.493243 0.096058
vt 0.493243 0.297754
vt 0.145445 0.354540
vt 0.028455 0.556236
vt 0.028455 0.354540
vt 0.884235 0.354540
vt 0.861749 0.471276
vt 0.861749 0.354540
vt 0.028455 0.096058
vt 0.145445 0.556236
vt 0.376253 0.096058
vt 0.873816 0.189873
vt 0.804839 0.354540
vt 0.643007 0.668942
vt 0.711984 0.218350
vt 0.538085 0.354540
vt 0.945102 0.685480
vt 0.941145 0.459235
vt 0.655075 0.286009
vt 0.957169 0.111565
vt 0.715425 0.286873
vt 0.028455 0.876896
vt 0.699917 0.882755
vt 0.971545 0.583984
vt 0.888192 0.906945
vt 0.793222 0.874412
vt 0.861749 0.689542
vt 0.945102 0.910895
vt 0.959994 0.054779
vt 0.249605 0.028393
vt 0.376253 0.028393
vt 0.028455 0.028393
vt 0.364186 0.668942
vt 0.098193 0.623901
vt 0.884235 0.471276
vn 0.0000 -0.0000 1.0000
vn -0.3911 0.9204 0.0000
vn -1.0000 -0.0000 0.0000
vn 0.0000 -1.0000 -0.0000
vn 1.0000 -0.0000 0.0000
vn 0.0000 0.0000 -1.0000
vn 0.0000 0.6712 0.7413
vn 0.0000 0.6712 -0.7413
vn -0.2341 -0.6525 -0.7207
vn 0.0000 1.0000 0.0000
vn -0.2984 -0.6648 0.6848
vn 0.2984 -0.6648 -0.6848
vn -0.3911 -0.9204 0.0000
vn 0.3911 0.9204 0.0000
vn 0.2341 -0.6525 0.7207
vn 0.3911 -0.9204 0.0000
vn 0.0000 -0.6619 -0.7496
vn 0.0000 -0.6619 0.7496
vn -0.2984 -0.6648 -0.6848
vn -0.2341 -0.6525 0.7207
vn 0.2341 -0.6525 -0.7207
vn 0.2984 -0.6648 0.6848
usemtl Material.001
s 1
f 1/1/1 2/2/1 3/3/1
f 4/4/2 5/5/2 6/6/2
f 7/7/3 8/8/3 2/9/3
f 9/10/4 2/11/4 8/12/4
f 10/13/5 3/14/5 9/15/5
f 4/16/6 9/17/6 8/18/6
f 11/19/1 12/20/1 13/21/1
f 1/1/7 13/21/7 7/22/7
f 4/16/8 14/23/8 10/24/8
f 13/25/9 5/26/9 7/27/9
f 15/28/10 16/29/10 17/30/10
f 18/31/6 17/32/6 14/23/6
f 13/33/3 15/34/3 18/35/3
f 14/36/5 16/37/5 11/38/5
f 5/39/3 19/40/3 6/41/3
f 20/42/5 21/43/5 22/44/5
f 18/45/11 6/46/11 19/47/11
f 11/48/12 22/49/12 21/50/12
f 18/51/13 23/52/13 13/53/13
f 1/54/14 20/55/14 22/56/14
f 14/57/15 20/58/15 10/59/15
f 11/60/16 24/61/16 14/62/16
f 25/63/3 26/64/3 27/65/3
f 27/66/1 28/67/1 29/68/1
f 30/69/3 27/65/3 31/70/3
f 32/71/6 33/72/6 25/73/6
f 34/74/3 31/70/3 35/75/3
f 36/76/6 30/77/6 34/78/6
f 36/79/10 35/80/10 37/81/10
f 29/82/5 38/83/5 32/84/5
f 35/85/1 39/86/1 37/87/1
f 37/88/5 40/89/5 36/90/5
f 33/91/4 28/92/4 26/93/4
f 40/94/17 25/73/17 30/77/17
f 39/95/5 32/84/5 40/89/5
f 31/96/18 29/68/18 39/86/18
f 1/1/1 7/22/1 2/2/1
f 4/4/2 7/97/2 5/5/2
f 7/7/3 4/98/3 8/8/3
f 9/10/4 3/99/4 2/11/4
f 10/13/5 1/100/5 3/14/5
f 4/16/6 10/24/6 9/17/6
f 11/19/1 16/101/1 12/20/1
f 1/1/7 11/19/7 13/21/7
f 4/16/8 18/31/8 14/23/8
f 13/25/19 23/102/19 5/26/19
f 15/28/10 12/103/10 16/29/10
f 18/31/6 15/104/6 17/32/6
f 13/33/3 12/105/3 15/34/3
f 14/36/5 17/106/5 16/37/5
f 5/39/3 23/107/3 19/40/3
f 20/42/5 24/108/5 21/43/5
f 18/45/20 4/109/20 6/46/20
f 11/48/21 1/110/21 22/49/21
f 18/51/13 19/111/13 23/52/13
f 1/54/14 10/112/14 20/55/14
f 14/57/22 24/113/22 20/58/22
f 11/60/16 21/114/16 24/61/16
f 25/63/3 33/115/3 26/64/3
f 27/66/1 26/116/1 28/67/1
f 30/69/3 25/63/3 27/65/3
f 32/71/6 38/117/6 33/72/6
f 34/74/3 30/69/3 31/70/3
f 36/76/6 40/94/6 30/77/6
f 36/79/10 34/118/10 35/80/10
f 29/82/5 28/119/5 38/83/5
f 35/85/1 31/96/1 39/86/1
f 37/88/5 39/95/5 40/89/5
f 33/91/4 38/120/4 28/92/4
f 40/94/17 32/71/17 25/73/17
f 39/95/5 29/82/5 32/84/5
f 31/96/18 27/66/18 29/68/18
